<mxfile host="Electron" agent="Mozilla/5.0 (Windows NT 10.0; Win64; x64) AppleWebKit/537.36 (KHTML, like Gecko) draw.io/26.0.9 Chrome/128.0.6613.186 Electron/32.2.5 Safari/537.36" version="26.0.9">
  <diagram id="C5RBs43oDa-KdzZeNtuy" name="Page-1">
    <mxGraphModel dx="1033" dy="907" grid="1" gridSize="10" guides="1" tooltips="1" connect="1" arrows="1" fold="1" page="1" pageScale="1" pageWidth="827" pageHeight="1169" math="0" shadow="0">
      <root>
        <mxCell id="WIyWlLk6GJQsqaUBKTNV-0" />
        <mxCell id="WIyWlLk6GJQsqaUBKTNV-1" parent="WIyWlLk6GJQsqaUBKTNV-0" />
        <mxCell id="AIl84UXaUqxPV7jILjdo-0" value="&lt;p style=&quot;margin:0px;margin-top:4px;text-align:center;&quot;&gt;&lt;b&gt;Model&lt;/b&gt;&lt;/p&gt;&lt;hr size=&quot;1&quot; style=&quot;border-style:solid;&quot;&gt;&lt;p style=&quot;margin:0px;margin-left:4px;&quot;&gt;- cells[]: ArrayList&amp;lt;Player&amp;gt;&lt;/p&gt;&lt;p style=&quot;margin:0px;margin-left:4px;&quot;&gt;- players[]: Player&lt;/p&gt;&lt;p style=&quot;margin:0px;margin-left:4px;&quot;&gt;- currentPlayerNumber: int&lt;/p&gt;&lt;p style=&quot;margin:0px;margin-left:4px;&quot;&gt;- winner: Player&lt;/p&gt;&lt;p style=&quot;margin:0px;margin-left:4px;&quot;&gt;- gameDrawn: boolean&lt;/p&gt;&lt;p style=&quot;margin:0px;margin-left:4px;&quot;&gt;- winThreshold: int&lt;/p&gt;&lt;p style=&quot;margin:0px;margin-left:4px;&quot;&gt;- numberOfRows: int&lt;/p&gt;&lt;p style=&quot;margin:0px;margin-left:4px;&quot;&gt;- numberOfColumns: int&lt;/p&gt;&lt;p style=&quot;margin:0px;margin-left:4px;&quot;&gt;- maxNumberOfRows: int&lt;/p&gt;&lt;p style=&quot;margin:0px;margin-left:4px;&quot;&gt;- maxNumberOfCols: int&lt;/p&gt;&lt;p style=&quot;margin:0px;margin-left:4px;&quot;&gt;- minNumberOfRows: int&lt;/p&gt;&lt;p style=&quot;margin:0px;margin-left:4px;&quot;&gt;- minNumberOfCols: int&lt;/p&gt;&lt;p style=&quot;margin:0px;margin-left:4px;&quot;&gt;- gameOver: boolean&lt;/p&gt;&lt;hr size=&quot;1&quot; style=&quot;border-style:solid;&quot;&gt;&lt;p style=&quot;margin:0px;margin-left:4px;&quot;&gt;+ Model(int, int, int): Model 构造函数&lt;/p&gt;&lt;p style=&quot;margin:0px;margin-left:4px;&quot;&gt;+ Getter/Setter()&lt;/p&gt;&lt;p style=&quot;margin:0px;margin-left:4px;&quot;&gt;+ addPlayer(Player)&lt;/p&gt;&lt;p style=&quot;margin: 0px 0px 0px 4px;&quot;&gt;+ addRow()&lt;/p&gt;&lt;p style=&quot;margin: 0px 0px 0px 4px;&quot;&gt;+ addCol()&lt;/p&gt;&lt;p style=&quot;margin: 0px 0px 0px 4px;&quot;&gt;+ removeRow()&lt;/p&gt;&lt;p style=&quot;margin: 0px 0px 0px 4px;&quot;&gt;+ removeCol()&lt;/p&gt;&lt;p style=&quot;margin:0px;margin-left:4px;&quot;&gt;+ getCellOwner(int, int): Player&lt;/p&gt;&lt;p style=&quot;margin:0px;margin-left:4px;&quot;&gt;+ setCellOwner(int, int, Player)&lt;/p&gt;&lt;p style=&quot;margin:0px;margin-left:4px;&quot;&gt;+ getIndex(int, int): int&lt;/p&gt;" style="verticalAlign=top;align=left;overflow=fill;html=1;whiteSpace=wrap;" vertex="1" parent="WIyWlLk6GJQsqaUBKTNV-1">
          <mxGeometry x="750" y="60" width="210" height="400" as="geometry" />
        </mxCell>
        <mxCell id="AIl84UXaUqxPV7jILjdo-1" value="&lt;p style=&quot;margin:0px;margin-top:4px;text-align:center;&quot;&gt;&lt;b&gt;Controller&lt;/b&gt;&lt;/p&gt;&lt;hr size=&quot;1&quot; style=&quot;border-style:solid;&quot;&gt;&lt;p style=&quot;margin:0px;margin-left:4px;&quot;&gt;~ gameModel: Model&lt;/p&gt;&lt;hr size=&quot;1&quot; style=&quot;border-style:solid;&quot;&gt;&lt;p style=&quot;margin:0px;margin-left:4px;&quot;&gt;+ Controller(Model): Controller 构造函数&lt;/p&gt;&lt;p style=&quot;margin:0px;margin-left:4px;&quot;&gt;+ handleIncomingCommand(String)&lt;/p&gt;&lt;p style=&quot;margin:0px;margin-left:4px;&quot;&gt;+ addRow()&lt;/p&gt;&lt;p style=&quot;margin:0px;margin-left:4px;&quot;&gt;+ addCol()&lt;/p&gt;&lt;p style=&quot;margin:0px;margin-left:4px;&quot;&gt;+ removeRow()&lt;/p&gt;&lt;p style=&quot;margin:0px;margin-left:4px;&quot;&gt;+ removeCol()&lt;/p&gt;&lt;p style=&quot;margin:0px;margin-left:4px;&quot;&gt;+ increaseWinThreshold()&lt;/p&gt;&lt;p style=&quot;margin:0px;margin-left:4px;&quot;&gt;+ decreaseWinThreshold()&lt;/p&gt;&lt;p style=&quot;margin:0px;margin-left:4px;&quot;&gt;+ reset()&lt;/p&gt;&lt;p style=&quot;margin:0px;margin-left:4px;&quot;&gt;+ checkWin(): boolean&lt;/p&gt;&lt;p style=&quot;margin:0px;margin-left:4px;&quot;&gt;- checkLine(int, int, int , int, Player, int, int)&lt;/p&gt;&lt;p style=&quot;margin:0px;margin-left:4px;&quot;&gt;- checkBoardFilled(): boolean&lt;/p&gt;" style="verticalAlign=top;align=left;overflow=fill;html=1;whiteSpace=wrap;" vertex="1" parent="WIyWlLk6GJQsqaUBKTNV-1">
          <mxGeometry x="430" y="60" width="230" height="260" as="geometry" />
        </mxCell>
        <mxCell id="AIl84UXaUqxPV7jILjdo-2" value="&lt;p style=&quot;margin:0px;margin-top:4px;text-align:center;&quot;&gt;&lt;b&gt;Game&lt;/b&gt;&lt;/p&gt;&lt;hr size=&quot;1&quot; style=&quot;border-style:solid;&quot;&gt;&lt;p style=&quot;margin:0px;margin-left:4px;&quot;&gt;~ controller: Controller&lt;/p&gt;&lt;p style=&quot;margin:0px;margin-left:4px;&quot;&gt;~ inputBox: TextField&lt;/p&gt;&lt;p style=&quot;margin:0px;margin-left:4px;&quot;&gt;~ view: View&lt;/p&gt;&lt;hr size=&quot;1&quot; style=&quot;border-style:solid;&quot;&gt;&lt;p style=&quot;margin:0px;margin-left:4px;&quot;&gt;+ main&lt;/p&gt;&lt;p style=&quot;margin:0px;margin-left:4px;&quot;&gt;&lt;br&gt;&lt;/p&gt;&lt;p style=&quot;margin:0px;margin-left:4px;&quot;&gt;+ Game(int, int) 构造函数&lt;/p&gt;&lt;p style=&quot;margin:0px;margin-left:4px;&quot;&gt;+ getInsets(): Insets 设置窗口边距&lt;/p&gt;&lt;p style=&quot;margin:0px;margin-left:4px;&quot;&gt;+ actionPerformed(ActionEvent) 获取用户输入&lt;/p&gt;&lt;p style=&quot;margin:0px;margin-left:4px;&quot;&gt;+ mousePressed(MouseEvent) 监听鼠标&lt;/p&gt;&lt;p style=&quot;margin:0px;margin-left:4px;&quot;&gt;+ keyPressed(KeyEvent) 监听键盘&lt;/p&gt;&lt;p style=&quot;margin:0px;margin-left:4px;&quot;&gt;+ keyReleased(KetEvent)&lt;/p&gt;&lt;p style=&quot;margin:0px;margin-left:4px;&quot;&gt;+ keyTyped(KeyEvent)&lt;/p&gt;&lt;p style=&quot;margin:0px;margin-left:4px;&quot;&gt;+ windowClosing(WindowEvent) 监听窗口&lt;/p&gt;&lt;p style=&quot;margin:0px;margin-left:4px;&quot;&gt;&lt;br&gt;&lt;/p&gt;" style="verticalAlign=top;align=left;overflow=fill;html=1;whiteSpace=wrap;" vertex="1" parent="WIyWlLk6GJQsqaUBKTNV-1">
          <mxGeometry x="90" y="60" width="250" height="260" as="geometry" />
        </mxCell>
        <mxCell id="AIl84UXaUqxPV7jILjdo-3" value="&lt;p style=&quot;margin:0px;margin-top:4px;text-align:center;&quot;&gt;&lt;b&gt;View&lt;/b&gt;&lt;/p&gt;&lt;hr size=&quot;1&quot; style=&quot;border-style:solid;&quot;&gt;&lt;p style=&quot;margin:0px;margin-left:4px;&quot;&gt;- model: Model&lt;br&gt;&lt;/p&gt;&lt;p style=&quot;margin:0px;margin-left:4px;&quot;&gt;- MARGIN = 10&lt;/p&gt;&lt;hr size=&quot;1&quot; style=&quot;border-style:solid;&quot;&gt;&lt;p style=&quot;margin:0px;margin-left:4px;&quot;&gt;+ View(Model): View 构造函数&lt;/p&gt;&lt;p style=&quot;margin:0px;margin-left:4px;&quot;&gt;+ paintComponent(Graphics)&lt;/p&gt;" style="verticalAlign=top;align=left;overflow=fill;html=1;whiteSpace=wrap;" vertex="1" parent="WIyWlLk6GJQsqaUBKTNV-1">
          <mxGeometry x="430" y="359" width="200" height="120" as="geometry" />
        </mxCell>
        <mxCell id="AIl84UXaUqxPV7jILjdo-5" value="" style="shape=curlyBracket;whiteSpace=wrap;html=1;rounded=1;labelPosition=left;verticalLabelPosition=middle;align=right;verticalAlign=middle;size=0.5;movable=1;resizable=1;rotatable=1;deletable=1;editable=1;locked=0;connectable=1;fillColor=#dae8fc;strokeColor=#6c8ebf;" vertex="1" parent="WIyWlLk6GJQsqaUBKTNV-1">
          <mxGeometry x="410" y="150" width="20" height="50" as="geometry" />
        </mxCell>
        <mxCell id="AIl84UXaUqxPV7jILjdo-12" value="" style="shape=curlyBracket;whiteSpace=wrap;html=1;rounded=1;labelPosition=left;verticalLabelPosition=middle;align=right;verticalAlign=middle;size=0.5;movable=1;resizable=1;rotatable=1;deletable=1;editable=1;locked=0;connectable=1;fillColor=#dae8fc;strokeColor=#6c8ebf;" vertex="1" parent="WIyWlLk6GJQsqaUBKTNV-1">
          <mxGeometry x="410" y="209" width="20" height="20" as="geometry" />
        </mxCell>
        <mxCell id="AIl84UXaUqxPV7jILjdo-25" value="" style="endArrow=blockThin;html=1;rounded=0;curved=1;dashed=1;endFill=1;fillColor=#dae8fc;strokeColor=#6c8ebf;entryX=0.1;entryY=0.5;entryDx=0;entryDy=0;entryPerimeter=0;" edge="1" parent="WIyWlLk6GJQsqaUBKTNV-1" target="AIl84UXaUqxPV7jILjdo-5">
          <mxGeometry width="50" height="50" relative="1" as="geometry">
            <mxPoint x="317" y="226" as="sourcePoint" />
            <mxPoint x="432" y="175" as="targetPoint" />
            <Array as="points">
              <mxPoint x="390" y="220" />
            </Array>
          </mxGeometry>
        </mxCell>
        <mxCell id="AIl84UXaUqxPV7jILjdo-27" value="" style="endArrow=blockThin;html=1;rounded=0;curved=1;dashed=1;endFill=1;entryX=0.1;entryY=0.5;entryDx=0;entryDy=0;entryPerimeter=0;exitX=0.1;exitY=0.5;exitDx=0;exitDy=0;exitPerimeter=0;fillColor=#dae8fc;strokeColor=#6c8ebf;" edge="1" parent="WIyWlLk6GJQsqaUBKTNV-1" source="AIl84UXaUqxPV7jILjdo-28" target="AIl84UXaUqxPV7jILjdo-12">
          <mxGeometry width="50" height="50" relative="1" as="geometry">
            <mxPoint x="327" y="236" as="sourcePoint" />
            <mxPoint x="442" y="185" as="targetPoint" />
            <Array as="points">
              <mxPoint x="370" y="250" />
            </Array>
          </mxGeometry>
        </mxCell>
        <mxCell id="AIl84UXaUqxPV7jILjdo-28" value="" style="shape=curlyBracket;whiteSpace=wrap;html=1;rounded=1;flipH=1;labelPosition=right;verticalLabelPosition=middle;align=left;verticalAlign=middle;fillColor=#dae8fc;strokeColor=#6c8ebf;" vertex="1" parent="WIyWlLk6GJQsqaUBKTNV-1">
          <mxGeometry x="281" y="238" width="20" height="30" as="geometry" />
        </mxCell>
        <mxCell id="AIl84UXaUqxPV7jILjdo-29" value="" style="endArrow=blockThin;html=1;rounded=0;curved=1;dashed=1;endFill=1;fillColor=#dae8fc;strokeColor=#6c8ebf;entryX=-0.001;entryY=0.307;entryDx=0;entryDy=0;entryPerimeter=0;" edge="1" parent="WIyWlLk6GJQsqaUBKTNV-1" target="AIl84UXaUqxPV7jILjdo-1">
          <mxGeometry width="50" height="50" relative="1" as="geometry">
            <mxPoint x="329" y="204" as="sourcePoint" />
            <mxPoint x="450" y="140" as="targetPoint" />
            <Array as="points">
              <mxPoint x="380" y="150" />
            </Array>
          </mxGeometry>
        </mxCell>
        <mxCell id="AIl84UXaUqxPV7jILjdo-30" value="" style="endArrow=blockThin;html=1;rounded=0;curved=1;dashed=1;endFill=1;fillColor=#f8cecc;strokeColor=#b85450;" edge="1" parent="WIyWlLk6GJQsqaUBKTNV-1">
          <mxGeometry width="50" height="50" relative="1" as="geometry">
            <mxPoint x="133" y="153" as="sourcePoint" />
            <mxPoint x="192" y="173" as="targetPoint" />
            <Array as="points">
              <mxPoint x="173" y="150" />
            </Array>
          </mxGeometry>
        </mxCell>
        <mxCell id="AIl84UXaUqxPV7jILjdo-32" value="" style="endArrow=blockThin;html=1;rounded=0;curved=1;dashed=1;endFill=1;entryX=0.009;entryY=0.66;entryDx=0;entryDy=0;entryPerimeter=0;fillColor=#f8cecc;strokeColor=#b85450;" edge="1" parent="WIyWlLk6GJQsqaUBKTNV-1" target="AIl84UXaUqxPV7jILjdo-3">
          <mxGeometry width="50" height="50" relative="1" as="geometry">
            <mxPoint x="229" y="183" as="sourcePoint" />
            <mxPoint x="184" y="490" as="targetPoint" />
            <Array as="points">
              <mxPoint x="250" y="330" />
              <mxPoint x="360" y="430" />
            </Array>
          </mxGeometry>
        </mxCell>
        <mxCell id="AIl84UXaUqxPV7jILjdo-35" value="" style="endArrow=blockThin;html=1;rounded=0;curved=1;dashed=1;endFill=1;fillColor=#dae8fc;strokeColor=#6c8ebf;entryX=-0.005;entryY=0.635;entryDx=0;entryDy=0;entryPerimeter=0;" edge="1" parent="WIyWlLk6GJQsqaUBKTNV-1" target="AIl84UXaUqxPV7jILjdo-0">
          <mxGeometry width="50" height="50" relative="1" as="geometry">
            <mxPoint x="627" y="137" as="sourcePoint" />
            <mxPoint x="771" y="80" as="targetPoint" />
            <Array as="points">
              <mxPoint x="740" y="190" />
            </Array>
          </mxGeometry>
        </mxCell>
        <mxCell id="AIl84UXaUqxPV7jILjdo-36" value="" style="shape=curlyBracket;whiteSpace=wrap;html=1;rounded=1;labelPosition=left;verticalLabelPosition=middle;align=right;verticalAlign=middle;size=0.5;movable=1;resizable=1;rotatable=1;deletable=1;editable=1;locked=0;connectable=1;fillColor=#dae8fc;strokeColor=#6c8ebf;rotation=-180;" vertex="1" parent="WIyWlLk6GJQsqaUBKTNV-1">
          <mxGeometry x="514" y="150" width="20" height="50" as="geometry" />
        </mxCell>
        <mxCell id="AIl84UXaUqxPV7jILjdo-37" value="" style="endArrow=blockThin;html=1;rounded=0;curved=1;dashed=1;endFill=1;fillColor=#dae8fc;strokeColor=#6c8ebf;exitX=0.1;exitY=0.5;exitDx=0;exitDy=0;exitPerimeter=0;entryX=0.1;entryY=0.5;entryDx=0;entryDy=0;entryPerimeter=0;" edge="1" parent="WIyWlLk6GJQsqaUBKTNV-1" source="AIl84UXaUqxPV7jILjdo-36" target="AIl84UXaUqxPV7jILjdo-38">
          <mxGeometry width="50" height="50" relative="1" as="geometry">
            <mxPoint x="657" y="148" as="sourcePoint" />
            <mxPoint x="770" y="150" as="targetPoint" />
            <Array as="points">
              <mxPoint x="680" y="240" />
            </Array>
          </mxGeometry>
        </mxCell>
        <mxCell id="AIl84UXaUqxPV7jILjdo-38" value="" style="shape=curlyBracket;whiteSpace=wrap;html=1;rounded=1;labelPosition=left;verticalLabelPosition=middle;align=right;verticalAlign=middle;size=0.5;movable=1;resizable=1;rotatable=1;deletable=1;editable=1;locked=0;connectable=1;fillColor=#dae8fc;strokeColor=#6c8ebf;" vertex="1" parent="WIyWlLk6GJQsqaUBKTNV-1">
          <mxGeometry x="730" y="338" width="20" height="50" as="geometry" />
        </mxCell>
        <mxCell id="AIl84UXaUqxPV7jILjdo-39" value="" style="endArrow=blockThin;html=1;rounded=0;curved=1;dashed=1;endFill=1;fillColor=#dae8fc;strokeColor=#6c8ebf;entryX=-0.001;entryY=0.637;entryDx=0;entryDy=0;entryPerimeter=0;" edge="1" parent="WIyWlLk6GJQsqaUBKTNV-1" target="AIl84UXaUqxPV7jILjdo-0">
          <mxGeometry width="50" height="50" relative="1" as="geometry">
            <mxPoint x="504" y="242" as="sourcePoint" />
            <mxPoint x="799" y="312" as="targetPoint" />
            <Array as="points">
              <mxPoint x="700" y="210" />
            </Array>
          </mxGeometry>
        </mxCell>
        <mxCell id="AIl84UXaUqxPV7jILjdo-41" value="" style="endArrow=blockThin;html=1;rounded=0;curved=1;dashed=1;endFill=1;fillColor=#fff2cc;strokeColor=#d6b656;" edge="1" parent="WIyWlLk6GJQsqaUBKTNV-1">
          <mxGeometry width="50" height="50" relative="1" as="geometry">
            <mxPoint x="558" y="253.5" as="sourcePoint" />
            <mxPoint x="593" y="264" as="targetPoint" />
            <Array as="points">
              <mxPoint x="582" y="240" />
            </Array>
          </mxGeometry>
        </mxCell>
        <mxCell id="AIl84UXaUqxPV7jILjdo-42" value="" style="endArrow=blockThin;html=1;rounded=0;curved=1;dashed=1;endFill=1;fillColor=#fff2cc;strokeColor=#d6b656;" edge="1" parent="WIyWlLk6GJQsqaUBKTNV-1">
          <mxGeometry width="50" height="50" relative="1" as="geometry">
            <mxPoint x="627" y="137" as="sourcePoint" />
            <mxPoint x="593" y="287" as="targetPoint" />
            <Array as="points">
              <mxPoint x="650" y="210" />
            </Array>
          </mxGeometry>
        </mxCell>
        <mxCell id="AIl84UXaUqxPV7jILjdo-43" value="" style="endArrow=blockThin;html=1;rounded=0;curved=1;dashed=1;endFill=1;fillColor=#fff2cc;strokeColor=#d6b656;" edge="1" parent="WIyWlLk6GJQsqaUBKTNV-1">
          <mxGeometry width="50" height="50" relative="1" as="geometry">
            <mxPoint x="627" y="138" as="sourcePoint" />
            <mxPoint x="554" y="252" as="targetPoint" />
            <Array as="points">
              <mxPoint x="620" y="210" />
            </Array>
          </mxGeometry>
        </mxCell>
        <mxCell id="AIl84UXaUqxPV7jILjdo-44" value="" style="shape=curlyBracket;whiteSpace=wrap;html=1;rounded=1;labelPosition=left;verticalLabelPosition=middle;align=right;verticalAlign=middle;size=0.5;movable=1;resizable=1;rotatable=1;deletable=1;editable=1;locked=0;connectable=1;fillColor=#dae8fc;strokeColor=#6c8ebf;" vertex="1" parent="WIyWlLk6GJQsqaUBKTNV-1">
          <mxGeometry x="730" y="398" width="20" height="18" as="geometry" />
        </mxCell>
        <mxCell id="AIl84UXaUqxPV7jILjdo-45" value="" style="endArrow=blockThin;html=1;rounded=0;curved=1;dashed=1;endFill=1;fillColor=#dae8fc;strokeColor=#6c8ebf;entryX=0.1;entryY=0.5;entryDx=0;entryDy=0;entryPerimeter=0;" edge="1" parent="WIyWlLk6GJQsqaUBKTNV-1" target="AIl84UXaUqxPV7jILjdo-44">
          <mxGeometry width="50" height="50" relative="1" as="geometry">
            <mxPoint x="628" y="137" as="sourcePoint" />
            <mxPoint x="809" y="324" as="targetPoint" />
            <Array as="points">
              <mxPoint x="700" y="320" />
            </Array>
          </mxGeometry>
        </mxCell>
        <mxCell id="AIl84UXaUqxPV7jILjdo-46" value="&lt;p style=&quot;margin:0px;margin-top:4px;text-align:center;&quot;&gt;&lt;b&gt;Player&lt;/b&gt;&lt;/p&gt;&lt;hr size=&quot;1&quot; style=&quot;border-style:solid;&quot;&gt;&lt;p style=&quot;margin:0px;margin-left:4px;&quot;&gt;- letter: char&lt;br&gt;&lt;/p&gt;&lt;hr size=&quot;1&quot; style=&quot;border-style:solid;&quot;&gt;&lt;p style=&quot;margin:0px;margin-left:4px;&quot;&gt;+ Player(char): Player 构造函数&lt;/p&gt;&lt;p style=&quot;margin:0px;margin-left:4px;&quot;&gt;+ Getter/Setter()&lt;/p&gt;" style="verticalAlign=top;align=left;overflow=fill;html=1;whiteSpace=wrap;" vertex="1" parent="WIyWlLk6GJQsqaUBKTNV-1">
          <mxGeometry x="1030" y="60" width="200" height="120" as="geometry" />
        </mxCell>
        <mxCell id="AIl84UXaUqxPV7jILjdo-47" value="" style="endArrow=blockThin;html=1;rounded=0;curved=1;dashed=1;endFill=1;fillColor=#f8cecc;strokeColor=#b85450;entryX=0.002;entryY=0.544;entryDx=0;entryDy=0;entryPerimeter=0;" edge="1" parent="WIyWlLk6GJQsqaUBKTNV-1" target="AIl84UXaUqxPV7jILjdo-46">
          <mxGeometry width="50" height="50" relative="1" as="geometry">
            <mxPoint x="950" y="298" as="sourcePoint" />
            <mxPoint x="980" y="323" as="targetPoint" />
            <Array as="points">
              <mxPoint x="1000" y="260" />
              <mxPoint x="990" y="150" />
            </Array>
          </mxGeometry>
        </mxCell>
        <mxCell id="AIl84UXaUqxPV7jILjdo-48" value="" style="endArrow=blockThin;html=1;rounded=0;curved=1;dashed=1;endFill=1;fillColor=#f8cecc;strokeColor=#b85450;entryX=0;entryY=0.25;entryDx=0;entryDy=0;" edge="1" parent="WIyWlLk6GJQsqaUBKTNV-1" target="AIl84UXaUqxPV7jILjdo-1">
          <mxGeometry width="50" height="50" relative="1" as="geometry">
            <mxPoint x="230" y="183" as="sourcePoint" />
            <mxPoint x="331" y="119" as="targetPoint" />
            <Array as="points">
              <mxPoint x="330" y="110" />
            </Array>
          </mxGeometry>
        </mxCell>
        <mxCell id="AIl84UXaUqxPV7jILjdo-49" value="" style="endArrow=blockThin;html=1;rounded=0;curved=1;dashed=1;endFill=1;fillColor=#f8cecc;strokeColor=#b85450;" edge="1" parent="WIyWlLk6GJQsqaUBKTNV-1">
          <mxGeometry width="50" height="50" relative="1" as="geometry">
            <mxPoint x="230" y="180" as="sourcePoint" />
            <mxPoint x="760" y="292" as="targetPoint" />
            <Array as="points">
              <mxPoint x="340" y="30" />
              <mxPoint x="680" y="10" />
              <mxPoint x="730" y="160" />
            </Array>
          </mxGeometry>
        </mxCell>
      </root>
    </mxGraphModel>
  </diagram>
</mxfile>
